<svg id="Layer_1" data-name="Layer 1" xmlns="http://www.w3.org/2000/svg" viewBox="0 0 1080 1080"><defs><style>.cls-1{fill:#231f20;}</style></defs><title>WD</title><path class="cls-1" d="M539.37,576.25v68.4s2.26,31,32.91,20.65l80.34-46.46s41-22.91,32.26-76.14c0,0-5.16-28.39-33.23-46.46L539.37,432.67v50L630,535.92s23.23,17.1,3.87,40.33l-2.9,3.23-46.14,26.46L584.22,543Z"/><rect class="cls-1" x="393.9" y="412.59" width="45.45" height="152.69"/><path class="cls-1" d="M495.33,542.69l-0.65,62.92-46.14-26.46-2.9-3.23a34.79,34.79,0,0,1-6.28-10.65H393.9c3.95,37,33,53.24,33,53.24L507.27,665c30.65,10.32,32.91-20.65,32.91-20.65v-68.4Z"/><rect class="cls-1" x="508.39" y="511.17" width="63.04" height="63.04" transform="translate(-225.61 540.73) rotate(-45)"/><polygon class="cls-1" points="491.25 484.28 529.34 494.48 501.46 522.36 491.25 484.28"/><polygon class="cls-1" points="504.62 476.04 524.22 458.75 529.4 484.37 504.62 476.04"/><polygon class="cls-1" points="519.41 446.17 535.58 441.83 531.25 458 519.41 446.17"/></svg>