<?xml version="1.0" encoding="iso-8859-1"?>
<!-- Uploaded to: SVG Repo, www.svgrepo.com, Generator: SVG Repo Mixer Tools -->
<svg fill="#000000" height="800px" width="800px" version="1.1" id="Layer_1" xmlns="http://www.w3.org/2000/svg" xmlns:xlink="http://www.w3.org/1999/xlink" 
	 viewBox="0 0 512 512" xml:space="preserve">
<g>
	<g>
		<path d="M260.276,222.33c-32.711,0-59.324,26.612-59.324,59.324s26.612,59.324,59.324,59.324s59.324-26.612,59.324-59.324
			S292.987,222.33,260.276,222.33z M260.276,324.944c-23.871,0-43.29-19.42-43.29-43.29s19.42-43.29,43.29-43.29
			s43.29,19.42,43.29,43.29S284.146,324.944,260.276,324.944z"/>
	</g>
</g>
<g>
	<g>
		<path d="M414.196,0c-32.711,0-59.324,26.612-59.324,59.324c0,32.711,26.612,59.324,59.324,59.324
			c32.711,0,59.324-26.612,59.324-59.324C473.52,26.612,446.908,0,414.196,0z M414.196,102.614c-23.87,0-43.29-19.42-43.29-43.29
			s19.42-43.29,43.29-43.29c23.871,0,43.29,19.42,43.29,43.29S438.067,102.614,414.196,102.614z"/>
	</g>
</g>
<g>
	<g>
		<path d="M97.804,0C65.092,0,38.48,26.612,38.48,59.324c0,32.711,26.612,59.324,59.324,59.324
			c32.711,0,59.324-26.612,59.324-59.324C157.127,26.612,130.515,0,97.804,0z M97.804,102.614c-23.871,0-43.29-19.42-43.29-43.29
			s19.42-43.29,43.29-43.29s43.29,19.42,43.29,43.29S121.674,102.614,97.804,102.614z"/>
	</g>
</g>
<g>
	<g>
		<path d="M491.157,195.608c4.428,0,8.017-3.589,8.017-8.017v-25.653c0-23.281-18.941-42.221-42.221-42.221H371.44
			c-2.606,0-5.198,0.267-7.756,0.746c-29.559-22.564-66.121-34.951-103.409-34.951c-38.311,0-75.605,12.983-105.582,36.644
			c-4.519-1.615-9.251-2.439-14.134-2.439H55.048c-23.281,0-42.221,18.941-42.221,42.221v119.716c0,4.427,3.588,8.017,8.017,8.017
			h72.281c3.295,16.457,8.992,32.27,16.979,47.095c2.212,4.103,7.615,5.444,11.5,2.87c3.405-2.258,4.55-6.883,2.616-10.475
			c-6.722-12.475-11.652-25.721-14.709-39.489h65.254c4.428,0,8.017-3.589,8.017-8.017V161.938c0-11.925-4.937-22.977-13.365-30.833
			c26.287-19.127,58.165-29.56,90.86-29.56c31.217,0,60.795,9.066,86.282,26.33c-10.623,7.815-17.339,20.413-17.339,34.062v119.716
			c0,4.427,3.588,8.017,8.017,8.017h73.793c-8.69,38.866-32.504,73.294-65.776,95.309v-0.712c0-23.28-18.941-42.221-42.221-42.221
			H217.52c-23.281,0-42.221,18.941-42.221,42.221v0.721c-13.093-8.628-24.754-19.157-34.77-31.438
			c-2.799-3.43-7.849-3.944-11.28-1.146c-3.431,2.798-3.943,7.848-1.146,11.279c13.255,16.253,29.118,29.733,47.196,40.136v100.164
			c0,4.427,3.588,8.017,8.017,8.017h153.921c4.428,0,8.017-3.589,8.017-8.017V403.823c42.357-24.42,72.55-66.437,82.155-114.152
			h63.749c4.428,0,8.017-3.589,8.017-8.017v-51.307c0-4.427-3.588-8.017-8.017-8.017c-4.428,0-8.017,3.589-8.017,8.017v43.29
			H345.253V161.937c0-11.531,7.719-21.859,18.772-25.116h0.001c2.415-0.711,4.909-1.071,7.415-1.071h19.875l6.194,18.583
			l-8.399,92.391c-0.299,3.287,1.447,6.421,4.397,7.896l17.102,8.551c2.237,1.118,4.934,1.118,7.171,0l17.102-8.551
			c2.951-1.475,4.698-4.61,4.397-7.896l-8.399-92.391l6.195-18.584h19.875c14.441,0,26.188,11.748,26.188,26.188v25.653
			C483.14,192.018,486.728,195.608,491.157,195.608z M103.784,135.749l-3.207,9.62h-5.546l-3.207-9.62H103.784z M96.573,161.403
			h2.462l7.392,81.322l-8.623,4.312l-8.623-4.312L96.573,161.403z M166.747,273.637H28.86V161.937
			c0-14.44,11.747-26.188,26.188-26.188h19.875l6.194,18.583l-8.399,92.391c-0.299,3.287,1.447,6.421,4.397,7.896l17.102,8.551
			c2.237,1.118,4.934,1.118,7.171,0l17.102-8.551c2.951-1.475,4.698-4.61,4.397-7.896l-8.399-92.391l6.195-18.583h19.875
			c4.147,0,8.122,0.948,11.812,2.819c8.868,4.494,14.376,13.448,14.376,23.369V273.637z M266.256,358.079l-3.207,9.62h-5.547
			l-3.207-9.62H266.256z M259.045,383.733h2.462l7.392,81.323l-8.623,4.312l-8.623-4.312L259.045,383.733z M329.219,495.967H191.332
			V384.267c0-14.44,11.747-26.188,26.188-26.188h19.875l6.194,18.583l-8.399,92.391c-0.299,3.287,1.447,6.421,4.397,7.896
			l17.102,8.551c2.237,1.118,4.934,1.118,7.171,0l17.102-8.551c2.951-1.475,4.698-4.61,4.397-7.896l-8.399-92.391l6.195-18.583
			h19.875c14.441,0,26.188,11.748,26.188,26.188V495.967z M420.177,135.749l-3.207,9.62h-5.547l-3.207-9.62H420.177z
			 M414.196,247.037l-8.623-4.312l7.392-81.322h2.462l7.392,81.322L414.196,247.037z"/>
	</g>
</g>
</svg>